<mxfile host="app.diagrams.net" modified="2024-05-21T09:37:58.499Z" agent="Mozilla/5.0 (Windows NT 10.0; Win64; x64) AppleWebKit/537.36 (KHTML, like Gecko) Chrome/125.0.0.0 Safari/537.36" etag="Fy95Jfnjbd90XShUcQf6" version="24.4.4" type="github">
  <diagram name="Page-1" id="nz4C97befBeTrxB_KYIZ">
    <mxGraphModel dx="911" dy="532" grid="1" gridSize="10" guides="1" tooltips="1" connect="1" arrows="1" fold="1" page="1" pageScale="1" pageWidth="850" pageHeight="1100" math="0" shadow="0">
      <root>
        <mxCell id="0" />
        <mxCell id="1" parent="0" />
      </root>
    </mxGraphModel>
  </diagram>
</mxfile>
